<svg width="600" height="400" viewBox="0 0 600 400" xmlns="http://www.w3.org/2000/svg">
  <!-- Background -->
  <rect width="600" height="400" fill="#f8f9fa"/>
  
  <!-- Road -->
  <rect x="0" y="300" width="600" height="100" fill="#343a40"/>
  <rect x="50" y="350" width="50" height="10" fill="#fff"/>
  <rect x="150" y="350" width="50" height="10" fill="#fff"/>
  <rect x="250" y="350" width="50" height="10" fill="#fff"/>
  <rect x="350" y="350" width="50" height="10" fill="#fff"/>
  <rect x="450" y="350" width="50" height="10" fill="#fff"/>
  <rect x="550" y="350" width="50" height="10" fill="#fff"/>
  
  <!-- Car body -->
  <path d="M100,260 L150,200 L400,200 L450,260 L480,260 L500,300 L80,300 L100,260 Z" fill="#0d6efd"/>
  
  <!-- Car windows -->
  <path d="M160,210 L180,260 L370,260 L390,210 Z" fill="#cfe2ff"/>
  <line x1="270" y1="210" x2="270" y2="260" stroke="#0a58ca" stroke-width="2"/>
  
  <!-- Wheels -->
  <circle cx="150" cy="300" r="30" fill="#212529"/>
  <circle cx="150" cy="300" r="15" fill="#6c757d"/>
  
  <circle cx="430" cy="300" r="30" fill="#212529"/>
  <circle cx="430" cy="300" r="15" fill="#6c757d"/>
  
  <!-- Lights -->
  <rect x="100" y="240" width="20" height="10" fill="#ffc107"/>
  <rect x="460" y="240" width="20" height="10" fill="#dc3545"/>
  
  <!-- 404 Text -->
  <text x="300" y="120" font-family="Arial" font-size="80" font-weight="bold" fill="#343a40" text-anchor="middle">404</text>
  <text x="300" y="160" font-family="Arial" font-size="24" fill="#6c757d" text-anchor="middle">Page non trouvée</text>
</svg>
